HIERARCHY
ROOT Reference
{
  OFFSET 0 0 0
  CHANNELS 6 Xposition Yposition Zposition Zrotation Xrotation Yrotation
  JOINT Hips
  {
    OFFSET 251.394 724.17 483.536
    CHANNELS 3 Zrotation Xrotation Yrotation
    JOINT RightUpLeg
    {
      OFFSET -0.450515 -23.4426 -1.37224
      CHANNELS 3 Zrotation Xrotation Yrotation
      JOINT RightLeg
      {
        OFFSET 112.821 0.0872427 -0.321027
        CHANNELS 3 Zrotation Xrotation Yrotation
        JOINT RightFoot
        {
          OFFSET 105.718 0.000193788 0.0213165
          CHANNELS 3 Zrotation Xrotation Yrotation
          JOINT RightToeBase
          {
            OFFSET 37.638 -0.000116272 0.00224792
            CHANNELS 3 Zrotation Xrotation Yrotation
            JOINT RightToeEnd
            {
              OFFSET 21.2112 0.114605 -0.000138184
              CHANNELS 3 Zrotation Xrotation Yrotation
              End Site
              {
                OFFSET 0 0 0
              }
            }
          }
        }
      }
    }
    JOINT LeftUpLeg
    {
      OFFSET -0.449508 23.4315 -1.37054
      CHANNELS 3 Zrotation Xrotation Yrotation
      JOINT LeftLeg
      {
        OFFSET 112.821 -0.0485242 -0.372458
        CHANNELS 3 Zrotation Xrotation Yrotation
        JOINT LeftFoot
        {
          OFFSET 105.716 0.00496094 -0.0229443
          CHANNELS 3 Zrotation Xrotation Yrotation
          JOINT LeftToeBase
          {
            OFFSET 37.639 0 0.00158905
            CHANNELS 3 Zrotation Xrotation Yrotation
            JOINT LeftToeEnd
            {
              OFFSET 21.2113 -0.125031 -0.00017438
              CHANNELS 3 Zrotation Xrotation Yrotation
              End Site
              {
                OFFSET 0 0 0
              }
            }
          }
        }
      }
    }
    JOINT Spine
    {
      OFFSET -5.01225 0.000463591 -9.60395
      CHANNELS 3 Zrotation Xrotation Yrotation
      JOINT Spine1
      {
        OFFSET 26.0222 -0.000271301 -0.000155029
        CHANNELS 3 Zrotation Xrotation Yrotation
        JOINT Spine2
        {
          OFFSET 27.173 -0.000155029 -0.000310058
          CHANNELS 3 Zrotation Xrotation Yrotation
          JOINT Spine3
          {
            OFFSET 36.3953 -0.000232544 7.75146e-005
            CHANNELS 3 Zrotation Xrotation Yrotation
            JOINT Neck
            {
              OFFSET 36.4331 0 -3.00261
              CHANNELS 3 Zrotation Xrotation Yrotation
              JOINT Head
              {
                OFFSET 23.0407 -0.000232544 -0.000310058
                CHANNELS 3 Zrotation Xrotation Yrotation
                End Site
                {
                  OFFSET 0 0 0
                }
              }
            }
            JOINT LeftShoulder
            {
              OFFSET 20.1317 6.74168 -12.6061
              CHANNELS 3 Zrotation Xrotation Yrotation
              JOINT LeftArm
              {
                OFFSET 34.2172 -5.81359e-005 7.75146e-005
                CHANNELS 3 Zrotation Xrotation Yrotation
                JOINT LeftForeArm
                {
                  OFFSET 65.4129 -0.0821605 0.0585235
                  CHANNELS 3 Zrotation Xrotation Yrotation
                  JOINT LeftHand
                  {
                    OFFSET 67.3883 0.0359667 0.0112396
                    CHANNELS 3 Zrotation Xrotation Yrotation
                    JOINT LeftHandThumb1
                    {
                      OFFSET 8.78386 2.85353 -6.05362
                      CHANNELS 3 Zrotation Xrotation Yrotation
                      JOINT LeftHandThumb2
                      {
                        OFFSET 8.25498 -0.000116272 -0.000174407
                        CHANNELS 3 Zrotation Xrotation Yrotation
                        JOINT LeftHandThumb3
                        {
                          OFFSET 7.24822 0.000310058 5.81358e-005
                          CHANNELS 3 Zrotation Xrotation Yrotation
                          JOINT LeftHandThumb4
                          {
                            OFFSET 7.0004 -3.87568e-005 -0.000310057
                            CHANNELS 3 Zrotation Xrotation Yrotation
                            End Site
                            {
                              OFFSET 0 0 0
                            }
                          }
                        }
                      }
                    }
                    JOINT LeftHandIndex1
                    {
                      OFFSET 24.0991 -1.01537 -5.40558
                      CHANNELS 3 Zrotation Xrotation Yrotation
                      JOINT LeftHandIndex2
                      {
                        OFFSET 7.26759 -0.000290679 -0.000465086
                        CHANNELS 3 Zrotation Xrotation Yrotation
                        JOINT LeftHandIndex3
                        {
                          OFFSET 7.13628 -1.93787e-005 0.000232543
                          CHANNELS 3 Zrotation Xrotation Yrotation
                          JOINT LeftHandIndex4
                          {
                            OFFSET 5.46699 9.68932e-005 -0.000387571
                            CHANNELS 3 Zrotation Xrotation Yrotation
                            End Site
                            {
                              OFFSET 0 0 0
                            }
                          }
                        }
                      }
                    }
                    JOINT LeftHandMiddle1
                    {
                      OFFSET 24.4604 -2.52837 0.918567
                      CHANNELS 3 Zrotation Xrotation Yrotation
                      JOINT LeftHandMiddle2
                      {
                        OFFSET 7.41627 -5.81359e-005 0.000116271
                        CHANNELS 3 Zrotation Xrotation Yrotation
                        JOINT LeftHandMiddle3
                        {
                          OFFSET 8.76829 3.87573e-005 -7.75142e-005
                          CHANNELS 3 Zrotation Xrotation Yrotation
                          JOINT LeftHandMiddle4
                          {
                            OFFSET 6.07588 -0.00013565 -5.81356e-005
                            CHANNELS 3 Zrotation Xrotation Yrotation
                            End Site
                            {
                              OFFSET 0 0 0
                            }
                          }
                        }
                      }
                    }
                    JOINT LeftHandRing1
                    {
                      OFFSET 22.465 -1.97467 6.3466
                      CHANNELS 3 Zrotation Xrotation Yrotation
                      JOINT LeftHandRing2
                      {
                        OFFSET 7.36666 -0.000232544 0.000387571
                        CHANNELS 3 Zrotation Xrotation Yrotation
                        JOINT LeftHandRing3
                        {
                          OFFSET 8.07624 -0.000465087 -0.000203475
                          CHANNELS 3 Zrotation Xrotation Yrotation
                          JOINT LeftHandRing4
                          {
                            OFFSET 6.04433 0.00013565 3.87571e-005
                            CHANNELS 3 Zrotation Xrotation Yrotation
                            End Site
                            {
                              OFFSET 0 0 0
                            }
                          }
                        }
                      }
                    }
                    JOINT LeftHandPinky1
                    {
                      OFFSET 19.5278 0.352933 10.4295
                      CHANNELS 3 Zrotation Xrotation Yrotation
                      JOINT LeftHandPinky2
                      {
                        OFFSET 6.16525 5.8136e-005 -0.000251921
                        CHANNELS 3 Zrotation Xrotation Yrotation
                        JOINT LeftHandPinky3
                        {
                          OFFSET 6.14448 -0.000329434 -0.00510625
                          CHANNELS 3 Zrotation Xrotation Yrotation
                          JOINT LeftHandPinky4
                          {
                            OFFSET 4.98555 0.000116272 0.000116271
                            CHANNELS 3 Zrotation Xrotation Yrotation
                            End Site
                            {
                              OFFSET 0 0 0
                            }
                          }
                        }
                      }
                    }
                  }
                }
              }
            }
            JOINT RightShoulder
            {
              OFFSET 20.1309 -6.74152 -12.6063
              CHANNELS 3 Zrotation Xrotation Yrotation
              JOINT RightArm
              {
                OFFSET 34.2171 7.75146e-005 7.75146e-005
                CHANNELS 3 Zrotation Xrotation Yrotation
                JOINT RightForeArm
                {
                  OFFSET 65.4492 0.242543 -0.176501
                  CHANNELS 3 Zrotation Xrotation Yrotation
                  JOINT RightHand
                  {
                    OFFSET 67.3888 -0.0867388 0.0597442
                    CHANNELS 3 Zrotation Xrotation Yrotation
                    JOINT RightHandThumb1
                    {
                      OFFSET 8.78307 -2.85357 -6.05302
                      CHANNELS 3 Zrotation Xrotation Yrotation
                      JOINT RightHandThumb2
                      {
                        OFFSET 8.25493 -7.75145e-005 0
                        CHANNELS 3 Zrotation Xrotation Yrotation
                        JOINT RightHandThumb3
                        {
                          OFFSET 7.24797 -0.000174408 0.000155029
                          CHANNELS 3 Zrotation Xrotation Yrotation
                          JOINT RightHandThumb4
                          {
                            OFFSET 7.00062 0 0
                            CHANNELS 3 Zrotation Xrotation Yrotation
                            End Site
                            {
                              OFFSET 0 0 0
                            }
                          }
                        }
                      }
                    }
                    JOINT RightHandIndex1
                    {
                      OFFSET 24.0991 1.01525 -5.40578
                      CHANNELS 3 Zrotation Xrotation Yrotation
                      JOINT RightHandIndex2
                      {
                        OFFSET 7.26773 7.75144e-005 0.000232543
                        CHANNELS 3 Zrotation Xrotation Yrotation
                        JOINT RightHandIndex3
                        {
                          OFFSET 7.13572 -0.000310058 3.87571e-005
                          CHANNELS 3 Zrotation Xrotation Yrotation
                          JOINT RightHandIndex4
                          {
                            OFFSET 5.46717 0 3.87572e-005
                            CHANNELS 3 Zrotation Xrotation Yrotation
                            End Site
                            {
                              OFFSET 0 0 0
                            }
                          }
                        }
                      }
                    }
                    JOINT RightHandMiddle1
                    {
                      OFFSET 24.4603 2.52899 0.918547
                      CHANNELS 3 Zrotation Xrotation Yrotation
                      JOINT RightHandMiddle2
                      {
                        OFFSET 7.41641 -0.000116272 -0.000116272
                        CHANNELS 3 Zrotation Xrotation Yrotation
                        JOINT RightHandMiddle3
                        {
                          OFFSET 8.76765 -3.87577e-005 0.000232543
                          CHANNELS 3 Zrotation Xrotation Yrotation
                          JOINT RightHandMiddle4
                          {
                            OFFSET 6.07609 -0.000193787 -0.000116271
                            CHANNELS 3 Zrotation Xrotation Yrotation
                            End Site
                            {
                              OFFSET 0 0 0
                            }
                          }
                        }
                      }
                    }
                    JOINT RightHandRing1
                    {
                      OFFSET 22.465 1.97571 6.34696
                      CHANNELS 3 Zrotation Xrotation Yrotation
                      JOINT RightHandRing2
                      {
                        OFFSET 7.36684 0.000193786 0.000155029
                        CHANNELS 3 Zrotation Xrotation Yrotation
                        JOINT RightHandRing3
                        {
                          OFFSET 8.07614 -0.000271301 0
                          CHANNELS 3 Zrotation Xrotation Yrotation
                          JOINT RightHandRing4
                          {
                            OFFSET 6.04468 0.000232543 0
                            CHANNELS 3 Zrotation Xrotation Yrotation
                            End Site
                            {
                              OFFSET 0 0 0
                            }
                          }
                        }
                      }
                    }
                    JOINT RightHandPinky1
                    {
                      OFFSET 19.5277 -0.352346 10.4296
                      CHANNELS 3 Zrotation Xrotation Yrotation
                      JOINT RightHandPinky2
                      {
                        OFFSET 6.16508 0 0.000232543
                        CHANNELS 3 Zrotation Xrotation Yrotation
                        JOINT RightHandPinky3
                        {
                          OFFSET 6.14396 -0.000155048 -0.0048834
                          CHANNELS 3 Zrotation Xrotation Yrotation
                          JOINT RightHandPinky4
                          {
                            OFFSET 4.98577 -7.75146e-005 -7.75143e-005
                            CHANNELS 3 Zrotation Xrotation Yrotation
                            End Site
                            {
                              OFFSET 0 0 0
                            }
                          }
                        }
                      }
                    }
                  }
                }
              }
            }
          }
        }
      }
    }
  }
}
MOTION
Frames:	4
Frame Time:	0.0333333
0 0 0 -90 -7.01671e-015 -180 15.2003 22.8692 -141.675 -147.726 33.7717 -54.0109 -0.106424 0.0124702 -74.2625 -4.97462 9.59761 31.1964 -0.529541 0.239469 43.802 1.54139e-005 5.6284e-005 -86.4974 169.953 2.56155 -57.6612 0.0900899 -0.00430835 -106.869 2.87092 5.00906 24.4173 0.586367 -0.0971761 59.2788 -2.23255e-005 1.72437e-007 -86.4975 -11.2316 13.7227 143.154 -2.15218 -6.99772 -3.72021 -11.0937 -10.1008 -15.2454 -1.17661 -1.34235 2.79988 -5.28811 11.7272 33.3633 -5.20598 16.5379 45.3327 91.2905 26.2748 0.475795 35.8897 7.50439 44.3234 2.71979 25.9932 107.918 27.0734 -42.4897 13.9481 -173.375 -50.1252 136.622 -0.00417219 -0.00147402 5.01302 0.000173707 0.000159741 25.7996 0.00491512 -0.00241207 -0.0036276 100.42 79.0802 -71.7827 0.000110023 -0.000894575 54.6254 0.00169905 -3.89667e-005 51.8876 -0.0005985 -0.000498281 -0.000457814 15.4717 85.6673 19.759 0.000297706 -0.00019229 65.9844 0.000998245 -0.000200407 28.9976 -0.000558798 -0.000276197 0.000117233 16.1784 83.9647 32.3097 0.000501071 -0.000973574 38.6714 0.00165448 0.000717804 41.1953 -0.000663807 -0.000646737 0.000690594 20.9216 81.3853 5.33324 0.00152022 -0.000519956 45.7782 0.000414689 0.000233419 33.0154 -9.19943e-005 -2.09182e-005 -0.000411784 -103.905 -21.7431 -31.6723 -31.7342 -16.5806 71.8935 -41.951 -4.83681 122.993 27.382 -1.91604 3.87898 142.213 51.8016 169.894 -8.92185e-005 0.000123035 16.9256 0.000201987 0.000119493 25.7996 3.05177e-005 -4.57763e-005 -180 -95.0303 -68.1708 -102.331 -0.00023873 0.000242731 49.7581 0.000206882 -4.71236e-005 51.8875 -9.15531e-005 -7.01671e-015 -180 -105.983 -79.922 -76.0641 -2.48265e-005 5.5001e-005 65.9844 -0.000151609 0.000281254 58.5702 -1.2198e-011 4.57764e-005 -180 -16.178 -83.9647 34.4454 5.67976e-005 0.000118519 55.5556 -0.000132823 2.26047e-005 57.7158 3.05177e-005 -4.57763e-005 -180 13.4558 -78.0186 70.402 -0.000107287 0.000222568 51.2478 -0.000128187 0.000157632 49.3611 3.05177e-005 -3.24611e-014 -180 
0 0 0 -90 -7.01671e-015 -180 14.9158 21.7407 -141.521 -147.701 32.9366 -55.0005 -0.682585 -0.143292 -74.7788 -4.13213 9.00044 33.6402 -0.529351 0.239887 43.7557 1.62145e-005 4.80206e-005 -86.4974 170.109 3.0826 -59.6072 -0.305023 0.107811 -105.491 2.68433 5.0601 27.6063 0.586175 -0.0983907 59.1597 -2.19472e-005 -9.26358e-006 -86.4975 -11.167 13.6668 143.104 -1.87386 -6.68694 -3.79561 -10.9365 -9.82509 -15.2201 -1.11777 -0.949472 2.62953 -5.74516 12.5503 33.6132 -4.99936 17.1008 45.765 90.2482 26.2748 0.735051 36.1644 7.84106 45.0699 2.45584 26.3608 108.181 25.5282 -43.129 13.1681 -173.375 -50.1252 136.622 -0.00366598 -0.00131161 5.01262 0.000172175 0.00015674 25.7996 0.00491511 -0.00241549 -0.0036276 100.42 79.0802 -71.7827 0.000107288 -0.000895398 54.6254 0.00169909 -4.64359e-005 51.8876 -0.0005985 -0.000500696 -0.000457814 15.4717 85.6673 19.759 0.00029765 -0.000186693 65.9844 0.000485563 -0.000486214 28.9973 -0.000558796 -0.000278611 0.000117233 16.1784 83.9647 32.3098 0.00050057 -0.000974257 38.6715 0.00140329 0.00049572 41.1951 -0.000663807 -0.000646738 0.000690594 20.9216 81.3853 5.33325 0.00151973 -0.000520329 45.7785 0.000413947 0.000229449 33.0154 -9.19903e-005 -2.09182e-005 -0.000411784 -104.126 -21.4631 -31.9786 -31.5388 -15.941 71.2642 -41.8029 -4.97518 123.195 27.5531 -0.546557 3.48613 142.213 51.8016 169.894 -8.90095e-005 0.000120755 16.9256 0.000201283 0.000117077 25.7996 3.05177e-005 -6.10351e-005 -180 -95.0303 -68.1708 -102.331 -0.000236334 0.000245805 49.7583 0.00020407 -5.48474e-005 51.8875 -9.15531e-005 -3.24611e-014 -180 -105.983 -79.922 -76.0641 -2.93154e-005 4.45896e-005 65.9844 -0.000152351 0.000280103 58.5702 -8.15981e-012 3.05176e-005 -180 -16.1783 -83.9648 34.4452 5.67394e-005 0.00011845 55.5556 -0.000132602 1.71744e-005 57.7158 3.05177e-005 -6.10351e-005 -180 13.4558 -78.0186 70.402 -0.000106741 0.000219964 51.2476 -0.000129569 0.000145238 49.3611 3.05177e-005 -1.52588e-005 -180 
0 0 0 -90 -7.01671e-015 -180 14.7776 20.4829 -141.564 -147.985 31.8486 -55.8181 -1.14174 -0.258804 -75.2385 -3.36682 8.41704 35.7035 -0.52899 0.240677 43.6702 1.67805e-005 3.80183e-005 -86.4974 170.18 3.95367 -61.1003 -0.752166 0.205449 -103.613 2.27812 5.16683 29.876 0.585866 -0.10018 58.9843 -2.20285e-005 -6.46678e-006 -86.4975 -10.9792 13.5059 142.952 -1.62951 -6.38267 -3.8686 -10.6972 -9.52048 -15.1342 -1.05899 -0.566279 2.43256 -6.19069 13.2916 33.9154 -4.77885 17.5713 46.3335 88.8232 26.2744 1.2043 36.5034 8.0976 45.959 1.92733 26.6943 108.327 23.9393 -44.216 12.8788 -173.375 -50.1253 136.622 -0.00315572 -0.00114847 5.01223 0.000172112 0.000151368 25.7996 0.00491512 -0.00241967 -0.0036276 100.42 79.0802 -71.7827 0.000103137 -0.000896753 54.6254 0.00169951 -5.69771e-005 51.8876 -0.0005985 -0.000505526 -0.000457814 15.4717 85.6673 19.759 0.000296424 -0.000186293 65.9844 -2.72225e-005 -0.000773294 28.9971 -0.000558796 -0.000284011 0.000117233 16.1784 83.9647 32.3098 0.000496845 -0.000970501 38.6715 0.00115316 0.000269976 41.1949 -0.000663807 -0.000649153 0.000690594 20.9216 81.3853 5.33325 0.00151866 -0.000520514 45.7787 0.000414598 0.000221155 33.0154 -9.19904e-005 -2.09183e-005 -0.000411784 -104.375 -21.2331 -32.2433 -31.379 -15.6636 70.9724 -41.6818 -4.53917 123.313 27.3037 0.598641 2.88346 142.213 51.8016 169.894 -9.14807e-005 0.000116681 16.9256 0.000202018 0.000114414 25.7996 3.05177e-005 -6.10351e-005 -180 -95.0303 -68.1708 -102.331 -0.000244856 0.000235004 49.7585 0.00020653 -6.1856e-005 51.8876 -9.15531e-005 -1.52588e-005 -180 -105.983 -79.922 -76.0641 -2.55593e-005 5.32289e-005 65.9844 -0.000152136 0.00027812 58.5702 -8.13437e-012 3.05176e-005 -180 -16.178 -83.9647 34.4452 5.9796e-005 0.000123952 55.5556 -0.000137083 5.5425e-006 57.7158 3.05177e-005 -6.10351e-005 -180 13.4558 -78.0187 70.402 -0.000104114 0.000227059 51.2474 -0.000133468 0.000126093 49.3611 3.05177e-005 -1.52588e-005 -180 
0 0 0 -90 -7.01671e-015 -180 14.691 19.1623 -141.786 -148.508 30.6008 -56.4176 -1.49348 -0.342834 -75.5731 -2.52396 7.7272 37.3546 -0.528472 0.241818 43.5467 1.73162e-005 2.16477e-005 -86.4974 170.036 5.05897 -62.0243 -1.14225 0.254941 -101.472 1.75734 5.37603 31.383 0.585455 -0.102513 58.7557 -2.18551e-005 -1.53488e-005 -86.4975 -10.687 13.2426 142.736 -1.44729 -6.03651 -3.88162 -10.3334 -9.16556 -14.979 -1.02581 -0.14448 2.15055 -6.65384 14.0128 34.3242 -4.49331 17.9874 46.9231 87.4014 26.2654 1.7404 36.7953 8.28953 46.8954 1.38535 26.9281 108.311 22.6161 -45.4475 12.9429 -173.375 -50.1253 136.622 -0.00264955 -0.000985603 5.01183 0.000173907 0.000143132 25.7997 0.00491512 -0.00242386 -0.0036276 100.42 79.0802 -71.7827 9.94288e-005 -0.000900101 54.6254 0.00169999 -7.16694e-005 51.8876 -0.000598501 -0.000513163 -0.000457814 15.4716 85.6673 19.7591 0.000294613 -0.000187991 65.9844 -0.00054036 -0.00105862 28.9969 -0.000558798 -0.000291648 0.000117233 16.1784 83.9647 32.3098 0.000492237 -0.000970057 38.6715 0.000902541 4.68778e-005 41.1946 -0.000663806 -0.000653336 0.000690595 20.9216 81.3853 5.33324 0.00151921 -0.000520161 45.779 0.0004159 0.000212442 33.0154 -9.19864e-005 -2.09184e-005 -0.000411784 -104.511 -21.1296 -32.3679 -31.3761 -15.6661 70.8878 -41.7793 -3.90551 123.404 26.8614 1.11353 2.28958 142.213 51.8016 169.894 -8.9584e-005 0.00011096 16.9256 0.000200356 0.000106009 25.7996 3.05177e-005 -7.62938e-005 -180 -95.0303 -68.1708 -102.331 -0.000231126 0.000246022 49.7587 0.000202575 -8.17672e-005 51.8875 -9.15531e-005 -1.52588e-005 -180 -105.983 -79.922 -76.0642 -2.92684e-005 4.34214e-005 65.9844 -0.000152552 0.000273496 58.5702 -4.07069e-012 1.52588e-005 -180 -16.1783 -83.9648 34.445 5.57907e-005 0.000119895 55.5556 -0.000132642 5.98446e-006 57.7158 3.05177e-005 -7.62939e-005 -180 13.4559 -78.0187 70.4021 -0.000106122 0.000223925 51.2471 -0.00012794 0.000103541 49.3611 3.05177e-005 -3.05176e-005 -180 
